<svg width="32" height="32" viewBox="0 0 32 32" xmlns="http://www.w3.org/2000/svg">
  <!-- Cake layers -->
  <rect x="4" y="20" width="24" height="8" rx="2" fill="#F59E0B"/>
  <rect x="6" y="16" width="20" height="6" rx="2" fill="#EC4899"/>
  <rect x="8" y="12" width="16" height="6" rx="2" fill="#8B5CF6"/>
  
  <!-- Frosting details -->
  <rect x="4" y="20" width="24" height="2" rx="1" fill="#FCD34D"/>
  <rect x="6" y="16" width="20" height="2" rx="1" fill="#F9A8D4"/>
  <rect x="8" y="12" width="16" height="2" rx="1" fill="#C4B5FD"/>
  
  <!-- Candle -->
  <rect x="15" y="8" width="2" height="6" rx="1" fill="#DC2626"/>
  
  <!-- Flame -->
  <ellipse cx="16" cy="6" rx="1.5" ry="2" fill="#F59E0B"/>
  <ellipse cx="16" cy="6" rx="0.8" ry="1.2" fill="#FEF3C7"/>
  
  <!-- Decorative elements -->
  <circle cx="10" cy="22" r="1" fill="#F9A8D4"/>
  <circle cx="16" cy="24" r="1" fill="#F9A8D4"/>
  <circle cx="22" cy="22" r="1" fill="#F9A8D4"/>
  
  <circle cx="12" cy="18" r="0.8" fill="#C4B5FD"/>
  <circle cx="20" cy="18" r="0.8" fill="#C4B5FD"/>
  
  <circle cx="14" cy="14" r="0.6" fill="#FCD34D"/>
  <circle cx="18" cy="14" r="0.6" fill="#FCD34D"/>
</svg>